<svg xmlns="http://www.w3.org/2000/svg" viewBox="0 0 90 98"><title>Download</title><path d="M11.842,98.5A6.312,6.312,0,0,1,5.5,92.233V63.5h8.808V86.375A3.949,3.949,0,0,0,18.043,90.5H82.968A3.95,3.95,0,0,0,86.7,86.375V63.5h7.8V92.233A6.313,6.313,0,0,1,88.157,98.5Z" transform="translate(-5 -1)"/><path d="M94,64V92.234A5.812,5.812,0,0,1,88.157,98H11.843A5.812,5.812,0,0,1,6,92.234V64h7.808V86.375A4.448,4.448,0,0,0,18.043,91H82.968A4.448,4.448,0,0,0,87.2,86.375V64H94m1-1H86.2V86.375A3.456,3.456,0,0,1,82.968,90H18.043a3.457,3.457,0,0,1-3.235-3.625V63H5V92.234A6.825,6.825,0,0,0,11.843,99H88.157A6.825,6.825,0,0,0,95,92.234V63Z" transform="translate(-5 -1)"/><polygon points="8.73 41.5 14.387 35.843 41.5 62.956 41.5 0.5 49.5 0.5 49.5 62.956 76.612 35.843 82.27 41.5 45.5 78.27 8.73 41.5"/><path d="M54,2V65.163l1.707-1.707L81.613,37.55l4.949,4.95L50.5,78.562,14.438,42.5l4.949-4.95L45.293,63.456,47,65.163V2h7m1-1H46V62.749L19.387,36.136,13.023,42.5,50.5,79.977,87.977,42.5l-6.364-6.364L55,62.749V1Z" transform="translate(-5 -1)"/></svg>